<?xml version="1.0" encoding="UTF-8" standalone="no"?>
<!-- Generator: Gravit.io -->
<svg xmlns="http://www.w3.org/2000/svg" xmlns:xlink="http://www.w3.org/1999/xlink" style="isolation:isolate" viewBox="9822.755 1502 520 405.98" width="520pt" height="405.98pt"><path d=" M 10108.182 1636.43 L 10192.046 1548.493 C 10201.762 1538.306 10217.921 1537.922 10228.109 1547.638 L 10334.856 1649.442 C 10345.044 1659.158 10345.427 1675.317 10335.711 1685.505 L 10166.708 1862.716 C 10115.212 1916.712 10034.389 1923.343 9986.334 1877.513 L 9830.653 1729.043 C 9820.466 1719.327 9820.082 1703.167 9829.799 1692.98 L 9871.566 1649.184 C 9881.282 1638.996 9897.441 1638.613 9907.629 1648.329 L 10006.714 1742.825 L 10031.207 1717.144 L 9990.893 1678.698 C 9980.706 1668.982 9980.322 1652.822 9990.039 1642.634 L 10031.806 1598.839 C 10041.522 1588.651 10057.681 1588.268 10067.869 1597.984 L 10108.182 1636.43 Z  M 9906.396 1598.113 C 9884.122 1576.871 9883.285 1541.542 9904.527 1519.269 C 9925.769 1496.995 9961.098 1496.158 9983.371 1517.4 C 10005.645 1538.642 10006.482 1573.971 9985.24 1596.244 C 9963.998 1618.518 9928.669 1619.355 9906.396 1598.113 Z " fill-rule="evenodd" fill="rgb(255,179,0)"/></svg>